<svg width="20" height="20" viewBox="0 0 20 20" fill="none" xmlns="http://www.w3.org/2000/svg">
<path d="M8.33333 10.0833H3.33333C3.31123 10.0833 3.29004 10.0746 3.27441 10.0589C3.25878 10.0433 3.25 10.0221 3.25 10V3.33333C3.25 3.31123 3.25878 3.29004 3.27441 3.27441C3.29004 3.25878 3.31123 3.25 3.33333 3.25H8.33333C8.35543 3.25 8.37663 3.25878 8.39226 3.27441C8.40789 3.29004 8.41667 3.31123 8.41667 3.33333V10C8.41667 10.0221 8.40789 10.0433 8.39226 10.0589C8.37663 10.0746 8.35543 10.0833 8.33333 10.0833ZM3.27441 16.7256C3.25878 16.71 3.25 16.6888 3.25 16.6667V13.3333C3.25 13.3112 3.25878 13.29 3.27441 13.2744C3.29004 13.2588 3.31123 13.25 3.33333 13.25H8.33333C8.35543 13.25 8.37663 13.2588 8.39226 13.2744C8.40789 13.29 8.41667 13.3112 8.41667 13.3333V16.6667C8.41667 16.6888 8.40789 16.71 8.39226 16.7256C8.37663 16.7412 8.35543 16.75 8.33333 16.75H3.33333C3.31123 16.75 3.29004 16.7412 3.27441 16.7256L2.74408 17.2559L3.27441 16.7256ZM11.6077 16.7256C11.5921 16.71 11.5833 16.6888 11.5833 16.6667V10.8333C11.5833 10.8112 11.5921 10.79 11.6077 10.7744C11.6234 10.7588 11.6446 10.75 11.6667 10.75H16.6667C16.6888 10.75 16.71 10.7588 16.7256 10.7744C16.7412 10.79 16.75 10.8112 16.75 10.8333V16.6667C16.75 16.6888 16.7412 16.71 16.7256 16.7256L17.2559 17.2559L16.7256 16.7256C16.71 16.7412 16.6888 16.75 16.6667 16.75H11.6667C11.6446 16.75 11.6234 16.7412 11.6077 16.7256ZM16.6667 7.58333H11.6667C11.6446 7.58333 11.6234 7.57455 11.6077 7.55893C11.5921 7.5433 11.5833 7.5221 11.5833 7.5V3.33333C11.5833 3.31123 11.5921 3.29004 11.6077 3.27441C11.6234 3.25878 11.6446 3.25 11.6667 3.25H16.6667C16.6888 3.25 16.71 3.25878 16.7256 3.27441L17.2559 2.74408L16.7256 3.27441C16.7412 3.29004 16.75 3.31123 16.75 3.33333V7.5C16.75 7.5221 16.7412 7.5433 16.7256 7.55893L17.2559 8.08926L16.7256 7.55893C16.71 7.57455 16.6888 7.58333 16.6667 7.58333Z" stroke="white" stroke-width="1.5"/>
</svg>
