<svg width="19" height="19" viewBox="0 0 19 19" fill="none" xmlns="http://www.w3.org/2000/svg">
<path d="M7.25177 8.60509C7.17261 8.59717 7.07761 8.59717 6.99052 8.60509C5.10636 8.54176 3.61011 6.99801 3.61011 5.09801C3.61011 3.15842 5.17761 1.58301 7.12511 1.58301C9.06469 1.58301 10.6401 3.15842 10.6401 5.09801C10.6322 6.99801 9.13594 8.54176 7.25177 8.60509Z" stroke="#706F72" stroke-width="1.5" stroke-linecap="round" stroke-linejoin="round"/>
<path d="M12.9913 3.16699C14.5272 3.16699 15.7622 4.40991 15.7622 5.93783C15.7622 7.43408 14.5747 8.65324 13.0943 8.70866C13.0309 8.70074 12.9597 8.70074 12.8884 8.70866" stroke="#706F72" stroke-width="1.5" stroke-linecap="round" stroke-linejoin="round"/>
<path d="M3.29332 11.527C1.37749 12.8095 1.37749 14.8995 3.29332 16.1741C5.4704 17.6307 9.04082 17.6307 11.2179 16.1741C13.1337 14.8916 13.1337 12.8016 11.2179 11.527C9.04874 10.0782 5.47832 10.0782 3.29332 11.527Z" stroke="#706F72" stroke-width="1.5" stroke-linecap="round" stroke-linejoin="round"/>
<path d="M14.5193 15.833C15.0893 15.7143 15.6276 15.4847 16.071 15.1443C17.306 14.218 17.306 12.6901 16.071 11.7638C15.6355 11.4313 15.1051 11.2097 14.543 11.083" stroke="#706F72" stroke-width="1.5" stroke-linecap="round" stroke-linejoin="round"/>
</svg>
